<svg width="144" height="17" viewBox="0 0 144 17" fill="none" xmlns="http://www.w3.org/2000/svg">
<path d="M3.83594 12.8326H1.33594L1.35156 10.8639H3.83594C4.40365 10.8639 4.88281 10.7337 5.27344 10.4733C5.66406 10.2076 5.96094 9.81702 6.16406 9.30139C6.36719 8.78056 6.46875 8.14775 6.46875 7.40295V6.87952C6.46875 6.31702 6.41146 5.82222 6.29688 5.39514C6.18229 4.96285 6.01302 4.60087 5.78906 4.3092C5.5651 4.01754 5.28646 3.79879 4.95312 3.65295C4.625 3.50712 4.2474 3.4342 3.82031 3.4342H1.28906V1.45764H3.82031C4.59115 1.45764 5.29427 1.58785 5.92969 1.84827C6.57031 2.10868 7.1224 2.48108 7.58594 2.96545C8.05469 3.44983 8.41667 4.02275 8.67188 4.6842C8.92708 5.34566 9.05469 6.08264 9.05469 6.89514V7.40295C9.05469 8.21025 8.92708 8.94722 8.67188 9.61389C8.41667 10.2753 8.05469 10.8483 7.58594 11.3326C7.1224 11.8118 6.57292 12.1816 5.9375 12.442C5.30208 12.7024 4.60156 12.8326 3.83594 12.8326ZM2.78125 1.45764V12.8326H0.234375V1.45764H2.78125ZM14.4688 12.9889C13.7969 12.9889 13.1953 12.8821 12.6641 12.6686C12.1328 12.455 11.6823 12.1608 11.3125 11.7858C10.9479 11.4056 10.6693 10.9681 10.4766 10.4733C10.2839 9.97847 10.1875 9.44983 10.1875 8.88733V8.59045C10.1875 7.96025 10.276 7.37952 10.4531 6.84827C10.6302 6.31702 10.888 5.85608 11.2266 5.46545C11.5703 5.06962 11.9922 4.76493 12.4922 4.55139C12.9922 4.33264 13.5625 4.22327 14.2031 4.22327C14.8021 4.22327 15.3359 4.32222 15.8047 4.52014C16.2734 4.71285 16.6693 4.9915 16.9922 5.35608C17.3151 5.71545 17.5599 6.15035 17.7266 6.66077C17.8984 7.16597 17.9844 7.73368 17.9844 8.36389V9.36389H11.1719V7.79358H15.5938V7.60608C15.5938 7.3092 15.5391 7.04879 15.4297 6.82483C15.3255 6.60087 15.1693 6.429 14.9609 6.3092C14.7578 6.1842 14.5 6.1217 14.1875 6.1217C13.8906 6.1217 13.6432 6.1842 13.4453 6.3092C13.2474 6.4342 13.0885 6.61129 12.9688 6.84045C12.8542 7.06441 12.7708 7.32743 12.7188 7.62952C12.6667 7.92639 12.6406 8.2467 12.6406 8.59045V8.88733C12.6406 9.21545 12.6849 9.51493 12.7734 9.78577C12.862 10.0566 12.9922 10.2884 13.1641 10.4811C13.3359 10.6738 13.5443 10.8248 13.7891 10.9342C14.0339 11.0436 14.3125 11.0983 14.625 11.0983C15.0104 11.0983 15.3776 11.0253 15.7266 10.8795C16.0755 10.7285 16.3776 10.4941 16.6328 10.1764L17.7734 11.4811C17.6016 11.7311 17.3594 11.9733 17.0469 12.2076C16.7396 12.4368 16.3698 12.6243 15.9375 12.7701C15.5052 12.916 15.0156 12.9889 14.4688 12.9889ZM23.4688 4.37952V6.09045H18.4531V4.37952H23.4688ZM19.6016 2.28577H22.0469V10.1842C22.0469 10.4186 22.0755 10.5983 22.1328 10.7233C22.1901 10.8483 22.2839 10.9368 22.4141 10.9889C22.5443 11.0358 22.7109 11.0592 22.9141 11.0592C23.0599 11.0592 23.1849 11.054 23.2891 11.0436C23.3932 11.0332 23.4896 11.0201 23.5781 11.0045V12.7701C23.3698 12.8378 23.1484 12.8899 22.9141 12.9264C22.6797 12.9681 22.4245 12.9889 22.1484 12.9889C21.6224 12.9889 21.1667 12.903 20.7812 12.7311C20.401 12.5592 20.1094 12.2884 19.9062 11.9186C19.7031 11.5436 19.6016 11.0566 19.6016 10.4576V2.28577ZM29.1172 10.817V7.19202C29.1172 6.93681 29.0781 6.71806 29 6.53577C28.9219 6.35347 28.7995 6.21025 28.6328 6.10608C28.4661 6.00191 28.25 5.94983 27.9844 5.94983C27.7604 5.94983 27.5651 5.98889 27.3984 6.06702C27.237 6.14514 27.112 6.25712 27.0234 6.40295C26.9401 6.54879 26.8984 6.72847 26.8984 6.94202H24.4609C24.4609 6.56181 24.5469 6.20764 24.7188 5.87952C24.8906 5.55139 25.1354 5.26233 25.4531 5.01233C25.776 4.76233 26.1615 4.56962 26.6094 4.4342C27.0573 4.29358 27.5599 4.22327 28.1172 4.22327C28.7786 4.22327 29.3672 4.33525 29.8828 4.5592C30.4036 4.77795 30.8151 5.10868 31.1172 5.55139C31.4193 5.98889 31.5703 6.54097 31.5703 7.20764V10.7467C31.5703 11.2571 31.599 11.6582 31.6562 11.9498C31.7188 12.2363 31.8073 12.4863 31.9219 12.6998V12.8326H29.4609C29.3464 12.5878 29.2604 12.2858 29.2031 11.9264C29.1458 11.5618 29.1172 11.192 29.1172 10.817ZM29.4219 7.67639L29.4375 9.02014H28.2266C27.9557 9.02014 27.7214 9.054 27.5234 9.1217C27.3307 9.18941 27.1745 9.28316 27.0547 9.40295C26.9349 9.51754 26.8464 9.65295 26.7891 9.8092C26.737 9.96025 26.7109 10.1269 26.7109 10.3092C26.7109 10.4811 26.7526 10.6373 26.8359 10.778C26.9193 10.9134 27.0339 11.0201 27.1797 11.0983C27.3255 11.1764 27.4948 11.2155 27.6875 11.2155C28.0052 11.2155 28.276 11.153 28.5 11.028C28.7292 10.903 28.9062 10.7519 29.0312 10.5748C29.1562 10.3925 29.2188 10.2233 29.2188 10.067L29.8047 11.0826C29.7109 11.291 29.5964 11.5071 29.4609 11.7311C29.3255 11.9498 29.1536 12.1556 28.9453 12.3483C28.737 12.5358 28.4844 12.6894 28.1875 12.8092C27.8958 12.929 27.5443 12.9889 27.1328 12.9889C26.6016 12.9889 26.1198 12.8821 25.6875 12.6686C25.2552 12.4498 24.9089 12.1503 24.6484 11.7701C24.3932 11.3899 24.2656 10.9524 24.2656 10.4576C24.2656 10.0149 24.3464 9.6217 24.5078 9.27795C24.6693 8.9342 24.9115 8.64254 25.2344 8.40295C25.5625 8.16337 25.974 7.98368 26.4688 7.86389C26.9635 7.73889 27.5417 7.67639 28.2031 7.67639H29.4219ZM35.7422 4.37952V12.8326H33.2969V4.37952H35.7422ZM33.1484 2.19202C33.1484 1.83785 33.2734 1.54879 33.5234 1.32483C33.7734 1.09566 34.1016 0.981079 34.5078 0.981079C34.9141 0.981079 35.2422 1.09566 35.4922 1.32483C35.7474 1.54879 35.875 1.83785 35.875 2.19202C35.875 2.54097 35.7474 2.83004 35.4922 3.0592C35.2422 3.28316 34.9141 3.39514 34.5078 3.39514C34.1016 3.39514 33.7734 3.28316 33.5234 3.0592C33.2734 2.83004 33.1484 2.54097 33.1484 2.19202ZM40.0703 0.832642V12.8326H37.625V0.832642H40.0703ZM44.3984 4.37952V12.8326H41.9531V4.37952H44.3984ZM41.8047 2.19202C41.8047 1.83785 41.9297 1.54879 42.1797 1.32483C42.4297 1.09566 42.7578 0.981079 43.1641 0.981079C43.5703 0.981079 43.8984 1.09566 44.1484 1.32483C44.4036 1.54879 44.5312 1.83785 44.5312 2.19202C44.5312 2.54097 44.4036 2.83004 44.1484 3.0592C43.8984 3.28316 43.5703 3.39514 43.1641 3.39514C42.7578 3.39514 42.4297 3.28316 42.1797 3.0592C41.9297 2.83004 41.8047 2.54097 41.8047 2.19202ZM48.5469 6.1842V12.8326H46.1016V4.37952H48.3984L48.5469 6.1842ZM48.2266 8.3092L47.6172 8.32483C47.6172 7.68941 47.6953 7.1191 47.8516 6.61389C48.0078 6.10868 48.2292 5.679 48.5156 5.32483C48.8073 4.96545 49.1536 4.69202 49.5547 4.50452C49.9609 4.31702 50.4089 4.22327 50.8984 4.22327C51.2943 4.22327 51.6562 4.28056 51.9844 4.39514C52.3125 4.50972 52.5938 4.69462 52.8281 4.94983C53.0677 5.19983 53.25 5.53316 53.375 5.94983C53.5 6.36129 53.5625 6.8691 53.5625 7.47327V12.8326H51.1094V7.46545C51.1094 7.11129 51.0599 6.83785 50.9609 6.64514C50.862 6.45243 50.7161 6.31702 50.5234 6.23889C50.3359 6.16077 50.1068 6.1217 49.8359 6.1217C49.5495 6.1217 49.3047 6.179 49.1016 6.29358C48.8984 6.40295 48.7318 6.5566 48.6016 6.75452C48.4714 6.95243 48.375 7.1842 48.3125 7.44983C48.2552 7.71545 48.2266 8.00191 48.2266 8.3092ZM60.4844 4.37952H62.7031V12.528C62.7031 13.304 62.526 13.9628 62.1719 14.5045C61.8229 15.0462 61.3359 15.4576 60.7109 15.7389C60.0859 16.0201 59.3542 16.1608 58.5156 16.1608C58.151 16.1608 57.7708 16.1113 57.375 16.0123C56.9792 15.9186 56.6068 15.7753 56.2578 15.5826C55.9089 15.3951 55.6172 15.1556 55.3828 14.8639L56.4219 13.4264C56.6615 13.6972 56.9479 13.916 57.2812 14.0826C57.6146 14.2545 57.9948 14.3405 58.4219 14.3405C58.8125 14.3405 59.1432 14.2701 59.4141 14.1295C59.6849 13.9889 59.8906 13.7832 60.0312 13.5123C60.1771 13.2415 60.25 12.9134 60.25 12.528V6.35608L60.4844 4.37952ZM54.8359 8.70764V8.54358C54.8359 7.90295 54.9141 7.31962 55.0703 6.79358C55.2266 6.26233 55.4531 5.8066 55.75 5.42639C56.0521 5.04097 56.4141 4.7441 56.8359 4.53577C57.263 4.32743 57.7422 4.22327 58.2734 4.22327C58.8464 4.22327 59.3203 4.33264 59.6953 4.55139C60.0703 4.76493 60.375 5.06702 60.6094 5.45764C60.8438 5.84306 61.0286 6.29879 61.1641 6.82483C61.2995 7.34566 61.4089 7.91077 61.4922 8.52014V8.80139C61.4089 9.38472 61.2891 9.929 61.1328 10.4342C60.9766 10.9394 60.7734 11.3847 60.5234 11.7701C60.2734 12.1503 59.9609 12.4498 59.5859 12.6686C59.2161 12.8821 58.7734 12.9889 58.2578 12.9889C57.7318 12.9889 57.2578 12.8821 56.8359 12.6686C56.4141 12.455 56.0521 12.1556 55.75 11.7701C55.4531 11.3847 55.2266 10.9316 55.0703 10.4108C54.9141 9.88993 54.8359 9.32222 54.8359 8.70764ZM57.2734 8.54358V8.70764C57.2734 9.04097 57.3047 9.35087 57.3672 9.63733C57.4349 9.92379 57.5339 10.1764 57.6641 10.3951C57.7995 10.6139 57.9661 10.7858 58.1641 10.9108C58.3672 11.0306 58.6042 11.0905 58.875 11.0905C59.2708 11.0905 59.5911 11.0071 59.8359 10.8405C60.0859 10.6686 60.2682 10.4316 60.3828 10.1295C60.5026 9.82743 60.5651 9.47587 60.5703 9.07483V8.25452C60.5703 7.92118 60.5365 7.6217 60.4688 7.35608C60.401 7.09045 60.2995 6.8665 60.1641 6.6842C60.0339 6.50191 59.862 6.36389 59.6484 6.27014C59.4401 6.17118 59.1875 6.1217 58.8906 6.1217C58.625 6.1217 58.3906 6.1842 58.1875 6.3092C57.9844 6.429 57.8151 6.59827 57.6797 6.81702C57.5443 7.03577 57.4427 7.29358 57.375 7.59045C57.3073 7.88212 57.2734 8.19983 57.2734 8.54358ZM67.1406 11.4108L69.4062 1.45764H70.7109L71.2266 2.69202L68.8125 12.8326H67.3828L67.1406 11.4108ZM66.2578 1.45764L68.1562 11.4576L67.8281 12.8326H66.2031L63.7344 1.45764H66.2578ZM72.8438 11.403L74.7188 1.45764H77.2344L74.7656 12.8326H73.1562L72.8438 11.403ZM71.5625 1.45764L73.8594 11.4655L73.5938 12.8326H72.1719L69.7188 2.6842L70.2578 1.45764H71.5625ZM82.0156 12.9889C81.3438 12.9889 80.7422 12.8821 80.2109 12.6686C79.6797 12.455 79.2292 12.1608 78.8594 11.7858C78.4948 11.4056 78.2161 10.9681 78.0234 10.4733C77.8307 9.97847 77.7344 9.44983 77.7344 8.88733V8.59045C77.7344 7.96025 77.8229 7.37952 78 6.84827C78.1771 6.31702 78.4349 5.85608 78.7734 5.46545C79.1172 5.06962 79.5391 4.76493 80.0391 4.55139C80.5391 4.33264 81.1094 4.22327 81.75 4.22327C82.349 4.22327 82.8828 4.32222 83.3516 4.52014C83.8203 4.71285 84.2161 4.9915 84.5391 5.35608C84.862 5.71545 85.1068 6.15035 85.2734 6.66077C85.4453 7.16597 85.5312 7.73368 85.5312 8.36389V9.36389H78.7188V7.79358H83.1406V7.60608C83.1406 7.3092 83.0859 7.04879 82.9766 6.82483C82.8724 6.60087 82.7161 6.429 82.5078 6.3092C82.3047 6.1842 82.0469 6.1217 81.7344 6.1217C81.4375 6.1217 81.1901 6.1842 80.9922 6.3092C80.7943 6.4342 80.6354 6.61129 80.5156 6.84045C80.401 7.06441 80.3177 7.32743 80.2656 7.62952C80.2135 7.92639 80.1875 8.2467 80.1875 8.59045V8.88733C80.1875 9.21545 80.2318 9.51493 80.3203 9.78577C80.4089 10.0566 80.5391 10.2884 80.7109 10.4811C80.8828 10.6738 81.0911 10.8248 81.3359 10.9342C81.5807 11.0436 81.8594 11.0983 82.1719 11.0983C82.5573 11.0983 82.9245 11.0253 83.2734 10.8795C83.6224 10.7285 83.9245 10.4941 84.1797 10.1764L85.3203 11.4811C85.1484 11.7311 84.9062 11.9733 84.5938 12.2076C84.2865 12.4368 83.9167 12.6243 83.4844 12.7701C83.0521 12.916 82.5625 12.9889 82.0156 12.9889ZM86.7266 0.832642H89.1641V10.8248L88.9141 12.8326H86.7266V0.832642ZM94.4375 8.51233V8.67639C94.4375 9.31702 94.3698 9.90035 94.2344 10.4264C94.1042 10.9524 93.9036 11.4082 93.6328 11.7936C93.362 12.1738 93.0208 12.4681 92.6094 12.6764C92.1979 12.8847 91.7135 12.9889 91.1562 12.9889C90.6406 12.9889 90.1979 12.8821 89.8281 12.6686C89.4583 12.4498 89.1484 12.1477 88.8984 11.7623C88.6484 11.3769 88.4453 10.9264 88.2891 10.4108C88.138 9.89514 88.0208 9.34045 87.9375 8.7467V8.46545C88.0208 7.8717 88.138 7.31702 88.2891 6.80139C88.4453 6.28577 88.6484 5.83525 88.8984 5.44983C89.1484 5.06441 89.4557 4.76493 89.8203 4.55139C90.1901 4.33264 90.6302 4.22327 91.1406 4.22327C91.7031 4.22327 92.1901 4.33004 92.6016 4.54358C93.0182 4.75712 93.362 5.0566 93.6328 5.44202C93.9036 5.82222 94.1042 6.27535 94.2344 6.80139C94.3698 7.32222 94.4375 7.89254 94.4375 8.51233ZM92 8.67639V8.51233C92 8.18941 91.9766 7.88472 91.9297 7.59827C91.888 7.31181 91.8125 7.0592 91.7031 6.84045C91.599 6.6165 91.4505 6.44202 91.2578 6.31702C91.0703 6.18681 90.8281 6.1217 90.5312 6.1217C90.2396 6.1217 89.9922 6.17118 89.7891 6.27014C89.5859 6.3691 89.4219 6.50972 89.2969 6.69202C89.1719 6.8691 89.0807 7.08525 89.0234 7.34045C88.9661 7.59566 88.9349 7.87952 88.9297 8.19202V9.02014C88.9349 9.43681 88.9896 9.80139 89.0938 10.1139C89.1979 10.4264 89.3672 10.6686 89.6016 10.8405C89.8359 11.0071 90.151 11.0905 90.5469 11.0905C90.849 11.0905 91.0938 11.0332 91.2812 10.9186C91.474 10.7988 91.6198 10.6321 91.7188 10.4186C91.8229 10.205 91.8958 9.94983 91.9375 9.65295C91.9792 9.35608 92 9.03056 92 8.67639ZM99.4609 12.8326H96.9609L96.9766 10.8639H99.4609C100.029 10.8639 100.508 10.7337 100.898 10.4733C101.289 10.2076 101.586 9.81702 101.789 9.30139C101.992 8.78056 102.094 8.14775 102.094 7.40295V6.87952C102.094 6.31702 102.036 5.82222 101.922 5.39514C101.807 4.96285 101.638 4.60087 101.414 4.3092C101.19 4.01754 100.911 3.79879 100.578 3.65295C100.25 3.50712 99.8724 3.4342 99.4453 3.4342H96.9141V1.45764H99.4453C100.216 1.45764 100.919 1.58785 101.555 1.84827C102.195 2.10868 102.747 2.48108 103.211 2.96545C103.68 3.44983 104.042 4.02275 104.297 4.6842C104.552 5.34566 104.68 6.08264 104.68 6.89514V7.40295C104.68 8.21025 104.552 8.94722 104.297 9.61389C104.042 10.2753 103.68 10.8483 103.211 11.3326C102.747 11.8118 102.198 12.1816 101.562 12.442C100.927 12.7024 100.227 12.8326 99.4609 12.8326ZM98.4062 1.45764V12.8326H95.8594V1.45764H98.4062ZM110.094 12.9889C109.422 12.9889 108.82 12.8821 108.289 12.6686C107.758 12.455 107.307 12.1608 106.938 11.7858C106.573 11.4056 106.294 10.9681 106.102 10.4733C105.909 9.97847 105.812 9.44983 105.812 8.88733V8.59045C105.812 7.96025 105.901 7.37952 106.078 6.84827C106.255 6.31702 106.513 5.85608 106.852 5.46545C107.195 5.06962 107.617 4.76493 108.117 4.55139C108.617 4.33264 109.188 4.22327 109.828 4.22327C110.427 4.22327 110.961 4.32222 111.43 4.52014C111.898 4.71285 112.294 4.9915 112.617 5.35608C112.94 5.71545 113.185 6.15035 113.352 6.66077C113.523 7.16597 113.609 7.73368 113.609 8.36389V9.36389H106.797V7.79358H111.219V7.60608C111.219 7.3092 111.164 7.04879 111.055 6.82483C110.951 6.60087 110.794 6.429 110.586 6.3092C110.383 6.1842 110.125 6.1217 109.812 6.1217C109.516 6.1217 109.268 6.1842 109.07 6.3092C108.872 6.4342 108.714 6.61129 108.594 6.84045C108.479 7.06441 108.396 7.32743 108.344 7.62952C108.292 7.92639 108.266 8.2467 108.266 8.59045V8.88733C108.266 9.21545 108.31 9.51493 108.398 9.78577C108.487 10.0566 108.617 10.2884 108.789 10.4811C108.961 10.6738 109.169 10.8248 109.414 10.9342C109.659 11.0436 109.938 11.0983 110.25 11.0983C110.635 11.0983 111.003 11.0253 111.352 10.8795C111.701 10.7285 112.003 10.4941 112.258 10.1764L113.398 11.4811C113.227 11.7311 112.984 11.9733 112.672 12.2076C112.365 12.4368 111.995 12.6243 111.562 12.7701C111.13 12.916 110.641 12.9889 110.094 12.9889ZM119.297 10.4811C119.297 10.3248 119.247 10.1868 119.148 10.067C119.055 9.94722 118.883 9.83785 118.633 9.73889C118.388 9.63993 118.042 9.54097 117.594 9.44202C117.172 9.35347 116.779 9.23889 116.414 9.09827C116.049 8.95243 115.732 8.77795 115.461 8.57483C115.19 8.3665 114.979 8.1217 114.828 7.84045C114.677 7.554 114.602 7.22847 114.602 6.86389C114.602 6.50972 114.677 6.17379 114.828 5.85608C114.984 5.53837 115.208 5.25712 115.5 5.01233C115.797 4.76754 116.156 4.57483 116.578 4.4342C117.005 4.29358 117.49 4.22327 118.031 4.22327C118.776 4.22327 119.419 4.34045 119.961 4.57483C120.503 4.804 120.919 5.12691 121.211 5.54358C121.503 5.95504 121.648 6.42639 121.648 6.95764H119.211C119.211 6.73889 119.169 6.54879 119.086 6.38733C119.003 6.22587 118.875 6.10087 118.703 6.01233C118.531 5.91858 118.305 5.8717 118.023 5.8717C117.805 5.8717 117.612 5.91077 117.445 5.98889C117.284 6.06181 117.156 6.16337 117.062 6.29358C116.974 6.42379 116.93 6.57483 116.93 6.7467C116.93 6.8665 116.956 6.97587 117.008 7.07483C117.065 7.16858 117.151 7.25712 117.266 7.34045C117.385 7.41858 117.539 7.48889 117.727 7.55139C117.919 7.61389 118.154 7.67379 118.43 7.73108C119.018 7.84045 119.555 7.9941 120.039 8.19202C120.529 8.38993 120.919 8.66337 121.211 9.01233C121.508 9.36129 121.656 9.82222 121.656 10.3951C121.656 10.7701 121.57 11.1139 121.398 11.4264C121.232 11.7389 120.99 12.0123 120.672 12.2467C120.354 12.4811 119.974 12.6634 119.531 12.7936C119.089 12.9238 118.589 12.9889 118.031 12.9889C117.234 12.9889 116.56 12.8457 116.008 12.5592C115.456 12.2727 115.039 11.9134 114.758 11.4811C114.482 11.0436 114.344 10.5957 114.344 10.1373H116.633C116.643 10.4186 116.714 10.6477 116.844 10.8248C116.979 11.0019 117.154 11.1321 117.367 11.2155C117.581 11.2936 117.82 11.3326 118.086 11.3326C118.352 11.3326 118.573 11.2962 118.75 11.2233C118.927 11.1503 119.062 11.0514 119.156 10.9264C119.25 10.7962 119.297 10.6477 119.297 10.4811ZM125.586 4.37952V12.8326H123.141V4.37952H125.586ZM122.992 2.19202C122.992 1.83785 123.117 1.54879 123.367 1.32483C123.617 1.09566 123.945 0.981079 124.352 0.981079C124.758 0.981079 125.086 1.09566 125.336 1.32483C125.591 1.54879 125.719 1.83785 125.719 2.19202C125.719 2.54097 125.591 2.83004 125.336 3.0592C125.086 3.28316 124.758 3.39514 124.352 3.39514C123.945 3.39514 123.617 3.28316 123.367 3.0592C123.117 2.83004 122.992 2.54097 122.992 2.19202ZM132.672 4.37952H134.891V12.528C134.891 13.304 134.714 13.9628 134.359 14.5045C134.01 15.0462 133.523 15.4576 132.898 15.7389C132.273 16.0201 131.542 16.1608 130.703 16.1608C130.339 16.1608 129.958 16.1113 129.562 16.0123C129.167 15.9186 128.794 15.7753 128.445 15.5826C128.096 15.3951 127.805 15.1556 127.57 14.8639L128.609 13.4264C128.849 13.6972 129.135 13.916 129.469 14.0826C129.802 14.2545 130.182 14.3405 130.609 14.3405C131 14.3405 131.331 14.2701 131.602 14.1295C131.872 13.9889 132.078 13.7832 132.219 13.5123C132.365 13.2415 132.438 12.9134 132.438 12.528V6.35608L132.672 4.37952ZM127.023 8.70764V8.54358C127.023 7.90295 127.102 7.31962 127.258 6.79358C127.414 6.26233 127.641 5.8066 127.938 5.42639C128.24 5.04097 128.602 4.7441 129.023 4.53577C129.451 4.32743 129.93 4.22327 130.461 4.22327C131.034 4.22327 131.508 4.33264 131.883 4.55139C132.258 4.76493 132.562 5.06702 132.797 5.45764C133.031 5.84306 133.216 6.29879 133.352 6.82483C133.487 7.34566 133.596 7.91077 133.68 8.52014V8.80139C133.596 9.38472 133.477 9.929 133.32 10.4342C133.164 10.9394 132.961 11.3847 132.711 11.7701C132.461 12.1503 132.148 12.4498 131.773 12.6686C131.404 12.8821 130.961 12.9889 130.445 12.9889C129.919 12.9889 129.445 12.8821 129.023 12.6686C128.602 12.455 128.24 12.1556 127.938 11.7701C127.641 11.3847 127.414 10.9316 127.258 10.4108C127.102 9.88993 127.023 9.32222 127.023 8.70764ZM129.461 8.54358V8.70764C129.461 9.04097 129.492 9.35087 129.555 9.63733C129.622 9.92379 129.721 10.1764 129.852 10.3951C129.987 10.6139 130.154 10.7858 130.352 10.9108C130.555 11.0306 130.792 11.0905 131.062 11.0905C131.458 11.0905 131.779 11.0071 132.023 10.8405C132.273 10.6686 132.456 10.4316 132.57 10.1295C132.69 9.82743 132.753 9.47587 132.758 9.07483V8.25452C132.758 7.92118 132.724 7.6217 132.656 7.35608C132.589 7.09045 132.487 6.8665 132.352 6.6842C132.221 6.50191 132.049 6.36389 131.836 6.27014C131.628 6.17118 131.375 6.1217 131.078 6.1217C130.812 6.1217 130.578 6.1842 130.375 6.3092C130.172 6.429 130.003 6.59827 129.867 6.81702C129.732 7.03577 129.63 7.29358 129.562 7.59045C129.495 7.88212 129.461 8.19983 129.461 8.54358ZM138.906 6.1842V12.8326H136.461V4.37952H138.758L138.906 6.1842ZM138.586 8.3092L137.977 8.32483C137.977 7.68941 138.055 7.1191 138.211 6.61389C138.367 6.10868 138.589 5.679 138.875 5.32483C139.167 4.96545 139.513 4.69202 139.914 4.50452C140.32 4.31702 140.768 4.22327 141.258 4.22327C141.654 4.22327 142.016 4.28056 142.344 4.39514C142.672 4.50972 142.953 4.69462 143.188 4.94983C143.427 5.19983 143.609 5.53316 143.734 5.94983C143.859 6.36129 143.922 6.8691 143.922 7.47327V12.8326H141.469V7.46545C141.469 7.11129 141.419 6.83785 141.32 6.64514C141.221 6.45243 141.076 6.31702 140.883 6.23889C140.695 6.16077 140.466 6.1217 140.195 6.1217C139.909 6.1217 139.664 6.179 139.461 6.29358C139.258 6.40295 139.091 6.5566 138.961 6.75452C138.831 6.95243 138.734 7.1842 138.672 7.44983C138.615 7.71545 138.586 8.00191 138.586 8.3092Z" fill="#0B1119"/>
</svg>
